<?xml version="1.0" encoding="utf-8"?>
<!-- Generator: Adobe Illustrator 26.0.1, SVG Export Plug-In . SVG Version: 6.00 Build 0)  -->
<svg version="1.1" id="Capa_1" xmlns="http://www.w3.org/2000/svg" xmlns:xlink="http://www.w3.org/1999/xlink" x="0px" y="0px"
	 viewBox="0 0 370.81 382.36" style="enable-background:new 0 0 370.81 382.36;" xml:space="preserve">
<style type="text/css">
	.st0{fill:#009FE3;stroke:#FFFFFF;stroke-miterlimit:10;}
	.st1{fill:#FFFFFF;}
</style>
<g>
	<g>
		<circle class="st0" cx="185.4" cy="191.18" r="137"/>
		<g>
			<g>
				<path class="st1" d="M227.13,238.24l2.51,2.6l-13.78,13.33l-2.51-2.6L227.13,238.24z M217.12,250.45l3.2,3.31
					c0.83,0.85,1.67,1.31,2.53,1.39c0.86,0.07,1.67-0.26,2.42-0.99l4.06-3.92c0.75-0.73,1.11-1.52,1.07-2.39s-0.47-1.72-1.3-2.58
					l-3.2-3.31l2.5-2.42l3.14,3.25c1.11,1.15,1.87,2.32,2.27,3.5c0.4,1.19,0.43,2.35,0.1,3.48s-1.02,2.21-2.06,3.22l-3.9,3.78
					c-0.99,0.96-2.05,1.59-3.19,1.9c-1.13,0.31-2.3,0.25-3.5-0.17c-1.2-0.42-2.37-1.22-3.51-2.4l-3.13-3.24L217.12,250.45z"/>
				<path class="st1" d="M228.09,266.8l-2.6-2.69l13.78-13.33l2.6,2.69L228.09,266.8z"/>
				<path class="st1" d="M244.62,256.32l3.07,3.17l-5.6,15.34l-0.47,0.01l10.8-10.45l2.4,2.48l-13.77,13.32l-3.09-3.19l5.46-15.16
					l0.47-0.01l-10.64,10.29l-2.4-2.48L244.62,256.32z"/>
				<path class="st1" d="M261.16,285.58l-2.69,2.6c-1.02,0.99-2.13,1.65-3.31,2c-1.18,0.34-2.35,0.34-3.51-0.01
					c-1.16-0.35-2.22-1.02-3.19-2.02c-0.97-1-1.63-2.08-1.97-3.24c-0.34-1.16-0.35-2.3-0.02-3.43c0.33-1.13,0.97-2.16,1.94-3.1
					l4.07-3.93c1.02-0.99,2.12-1.65,3.3-1.99c1.18-0.34,2.35-0.33,3.51,0.01s2.22,1.02,3.19,2.02c0.79,0.82,1.36,1.74,1.69,2.77
					c0.33,1.02,0.42,2.06,0.25,3.13c-0.17,1.06-0.58,2.07-1.24,3.02l-2.71-2.8c0.2-0.38,0.3-0.78,0.3-1.2
					c0-0.42-0.09-0.83-0.26-1.24c-0.17-0.4-0.41-0.76-0.72-1.07c-0.45-0.46-0.94-0.77-1.48-0.93c-0.54-0.15-1.09-0.15-1.65,0.02
					s-1.08,0.49-1.57,0.96l-4.07,3.93c-0.43,0.42-0.71,0.88-0.85,1.39c-0.14,0.51-0.12,1.04,0.05,1.57
					c0.17,0.53,0.48,1.03,0.94,1.51c0.45,0.47,0.94,0.78,1.48,0.95c0.53,0.16,1.07,0.16,1.62,0c0.55-0.17,1.07-0.49,1.57-0.97
					l0.23-0.22l-2.02-2.08l2.5-2.42L261.16,285.58z"/>
			</g>
		</g>
	</g>
	<g id="O">
		<polygon class="st1" points="205.68,136.54 258.39,190.79 206.15,244.55 200.86,239.11 247.5,191.11 201.48,143.74 		"/>
		<polygon class="st1" points="206.07,136.13 151.83,190.37 205.59,244.14 211.03,238.7 163.03,190.69 210.39,143.33 		"/>
		<polygon class="st1" points="166.74,138.06 112.42,192.39 166.26,246.23 171.71,240.78 123.64,192.71 171.07,145.27 		"/>
	</g>
</g>
</svg>
